<?xml version="1.0" encoding="UTF-8"?>
<svg xmlns="http://www.w3.org/2000/svg" xmlns:xlink="http://www.w3.org/1999/xlink" width="100pt" height="100pt" viewBox="0 0 100 100" version="1.1">
<g id="surface1">
<rect x="0" y="0" width="100" height="100" style="fill:rgb(31.764706%,16.862745%,83.137255%);fill-opacity:1;stroke:none;"/>
<path style=" stroke:none;fill-rule:nonzero;fill:rgb(100%,100%,100%);fill-opacity:1;" d="M 17.824219 63.890625 C 17.117188 63.890625 16.515625 63.652344 16.019531 63.183594 C 15.523438 62.699219 15.277344 62.125 15.277344 61.460938 C 15.277344 60.785156 15.523438 60.203125 16.019531 59.71875 C 16.515625 59.238281 17.117188 58.996094 17.824219 58.996094 C 18.542969 58.996094 19.148438 59.238281 19.644531 59.71875 C 20.152344 60.203125 20.402344 60.785156 20.402344 61.460938 C 20.402344 62.125 20.152344 62.699219 19.644531 63.183594 C 19.148438 63.652344 18.542969 63.890625 17.824219 63.890625 Z M 17.824219 63.890625 "/>
<path style=" stroke:none;fill-rule:nonzero;fill:rgb(100%,100%,100%);fill-opacity:1;" d="M 46.089844 63.488281 L 41.492188 63.488281 L 29.382812 44.386719 C 29.078125 43.902344 28.824219 43.402344 28.625 42.882812 L 28.519531 42.882812 C 28.613281 43.4375 28.660156 44.628906 28.660156 46.453125 L 28.660156 63.488281 L 24.59375 63.488281 L 24.59375 37.5 L 29.492188 37.5 L 41.191406 56.148438 C 41.6875 56.921875 42.007812 57.453125 42.148438 57.746094 L 42.21875 57.746094 C 42.101562 57.054688 42.042969 55.890625 42.042969 54.246094 L 42.042969 37.5 L 46.089844 37.5 Z M 46.089844 63.488281 "/>
<path style=" stroke:none;fill-rule:nonzero;fill:rgb(100%,100%,100%);fill-opacity:1;" d="M 65.886719 63.488281 L 51.65625 63.488281 L 51.65625 37.5 L 65.324219 37.5 L 65.324219 41.160156 L 55.867188 41.160156 L 55.867188 48.519531 L 64.578125 48.519531 L 64.578125 52.164062 L 55.867188 52.164062 L 55.867188 59.847656 L 65.886719 59.847656 Z M 65.886719 63.488281 "/>
<path style=" stroke:none;fill-rule:nonzero;fill:rgb(100%,100%,100%);fill-opacity:1;" d="M 86.109375 41.160156 L 78.828125 41.160156 L 78.828125 63.488281 L 74.621094 63.488281 L 74.621094 41.160156 L 67.355469 41.160156 L 67.355469 37.5 L 86.109375 37.5 Z M 86.109375 41.160156 "/>
</g>
</svg>
