<?xml version="1.0" encoding="utf-8"?>
<!-- Generator: Adobe Illustrator 24.1.2, SVG Export Plug-In . SVG Version: 6.00 Build 0)  -->
<svg version="1.1" id="Layer_1" xmlns="http://www.w3.org/2000/svg" xmlns:xlink="http://www.w3.org/1999/xlink" x="0px" y="0px"
	 width="100px" height="100px" viewBox="0 0 100 100" enable-background="new 0 0 100 100" xml:space="preserve">
<rect fill="#BFBFBF" width="100" height="100"/>
<path d="M84.8,70.8c0,4.8,0,9.4,0,14.1c-23.3,0-46.6,0-69.9,0c-0.3-1.9-0.4-62.8-0.1-70.3c23.3,0,46.6,0,70,0c0,0,0,0,0.1,0.1
	c0,0,0.1,0.1,0.1,0.2c0,4.5,0,9.1,0,13.7c-18.7,0-37.3,0-55.9,0c-0.4,1.9-0.5,35.4-0.2,42.3C47.4,70.8,66,70.8,84.8,70.8z"/>
</svg>
