<?xml version="1.0" encoding="UTF-8"?>
<svg xmlns="http://www.w3.org/2000/svg" xmlns:xlink="http://www.w3.org/1999/xlink" width="100pt" height="100pt" viewBox="0 0 100 100" version="1.1">
<g id="surface1">
<path style=" stroke:none;fill-rule:evenodd;fill:rgb(32.54902%,50.980392%,63.137255%);fill-opacity:1;" d="M 36.875 77.5 C 36.875 77.5 33.125 80 39.375 80.625 C 48.125 81.25 51.875 81.25 60.625 79.375 C 60.625 79.375 63.125 80.625 66.25 81.875 C 46.875 90.625 21.875 81.875 36.875 77.5 M 35 66.25 C 35 66.25 30.625 69.375 37.5 70 C 46.25 70.625 53.125 71.25 64.375 68.75 C 64.375 68.75 66.25 70.625 68.75 71.25 C 44.375 78.125 17.5 71.875 35 66.25 "/>
<path style=" stroke:none;fill-rule:evenodd;fill:rgb(90.588235%,43.529412%,0%);fill-opacity:1;" d="M 55 48.125 C 60 53.75 53.75 58.75 53.75 58.75 C 53.75 58.75 66.25 52.5 60.625 44.375 C 55 36.875 51.25 33.125 73.125 20.625 C 73.125 20.625 38.75 28.75 55 48.125 "/>
<path style=" stroke:none;fill-rule:evenodd;fill:rgb(32.54902%,50.980392%,63.137255%);fill-opacity:1;" d="M 81.25 85.625 C 81.25 85.625 84.375 88.125 78.125 90 C 66.875 93.125 30.625 94.375 20.625 90 C 16.875 88.75 23.75 86.25 25.625 85.625 C 28.125 85 29.375 85 29.375 85 C 25.625 82.5 3.125 90.625 18.125 93.125 C 58.75 99.375 91.875 90 81.25 85.625 M 38.75 55 C 38.75 55 20.625 59.375 32.5 60.625 C 37.5 61.25 47.5 61.25 56.875 60.625 C 64.375 60 71.875 58.75 71.875 58.75 C 71.875 58.75 69.375 60 67.5 61.25 C 48.75 66.25 12.5 63.75 23.125 58.75 C 31.875 54.375 38.75 55 38.75 55 M 71.875 73.125 C 90.625 63.125 81.875 53.75 76.25 55 C 74.375 55.625 73.75 56.25 73.75 56.25 C 73.75 56.25 74.375 55.625 75.625 55 C 87.5 50.625 96.875 66.875 71.875 73.125 C 71.875 73.75 71.875 73.75 71.875 73.125 "/>
<path style=" stroke:none;fill-rule:evenodd;fill:rgb(90.588235%,43.529412%,0%);fill-opacity:1;" d="M 60.625 0 C 60.625 0 71.25 10.625 50.625 26.25 C 34.375 38.75 46.875 46.25 50.625 54.375 C 41.25 46.25 33.75 38.75 38.75 31.875 C 45.625 21.25 65 16.875 60.625 0 "/>
<path style=" stroke:none;fill-rule:evenodd;fill:rgb(32.54902%,50.980392%,63.137255%);fill-opacity:1;" d="M 40.625 99.375 C 58.75 100.625 86.875 98.75 87.5 90 C 87.5 90 86.25 93.125 72.5 95.625 C 56.875 98.75 37.5 98.125 26.25 96.25 C 26.875 96.875 28.75 98.75 40.625 99.375 "/>
</g>
</svg>
