<?xml version="1.0" encoding="UTF-8"?>
<svg xmlns="http://www.w3.org/2000/svg" xmlns:xlink="http://www.w3.org/1999/xlink" width="100pt" height="100pt" viewBox="0 0 100 100" version="1.1">
<g id="surface1">
<path style=" stroke:none;fill-rule:nonzero;fill:rgb(0%,0%,0%);fill-opacity:1;" d="M 88.164062 50.414062 L 93.804688 40.859375 C 94.03125 40.386719 94.0625 39.839844 93.890625 39.34375 L 82.71875 7.34375 C 82.378906 6.371094 81.359375 5.8125 80.359375 6.054688 L 47.523438 14.054688 C 46.898438 14.210938 46.382812 14.65625 46.140625 15.257812 L 42.648438 24 L 32 24 C 31.445312 24 30.90625 24.234375 30.53125 24.640625 L 6.53125 50.640625 C 5.789062 51.441406 5.828125 52.691406 6.617188 53.445312 L 31.789062 77.445312 C 32.15625 77.804688 32.65625 78 33.164062 78 L 44.640625 78 L 48.140625 86.742188 C 48.398438 87.386719 48.972656 87.851562 49.65625 87.96875 L 84.578125 93.96875 C 85.628906 94.148438 86.640625 93.472656 86.867188 92.429688 L 93.953125 59.96875 C 94.0625 59.464844 93.972656 58.9375 93.703125 58.5 Z M 42.648438 24 L 70.835938 18.835938 L 56 48 L 22.335938 48 Z M 44.648438 78 L 22.335938 56 L 56 56 L 73.5 82.335938 Z M 80.773438 77.796875 L 64 52 L 78.664062 22.835938 L 88.164062 50.421875 Z M 80.773438 77.796875 "/>
</g>
</svg>
